<svg width="252" height="80" viewBox="0 0 252 80" fill="none" xmlns="http://www.w3.org/2000/svg">
<mask id="path-1-outside-1_202_632" maskUnits="userSpaceOnUse" x="97" y="25" width="126" height="33" fill="black">
<rect fill="white" x="97" y="25" width="126" height="33"/>
<path d="M115.605 52.3867C116.126 52.3867 116.549 52.5658 116.875 52.9238C117.233 53.2493 117.412 53.6725 117.412 54.1934C117.412 54.6816 117.233 55.1048 116.875 55.4629C116.549 55.821 116.126 56 115.605 56H101.396C100.68 56 100.078 55.7559 99.5898 55.2676C99.1016 54.7793 98.8574 54.1771 98.8574 53.4609V29.7305C98.8574 29.2422 99.0365 28.819 99.3945 28.4609C99.7526 28.0703 100.176 27.875 100.664 27.875C101.152 27.875 101.576 28.054 101.934 28.4121C102.324 28.7702 102.52 29.2096 102.52 29.7305V52.3867H115.605ZM121.465 28.4121C121.465 27.8913 121.644 27.4681 122.002 27.1426C122.36 26.7845 122.799 26.6055 123.32 26.6055C123.841 26.6055 124.264 26.7845 124.59 27.1426C124.948 27.4681 125.127 27.8913 125.127 28.4121V54.3887C125.127 54.877 124.948 55.3001 124.59 55.6582C124.264 56.0163 123.841 56.1953 123.32 56.1953C122.799 56.1953 122.36 56.0163 122.002 55.6582C121.644 55.3001 121.465 54.877 121.465 54.3887V28.4121ZM134.16 47.1133C134.388 48.9036 135.072 50.3359 136.211 51.4102C137.383 52.4518 138.978 52.9727 140.996 52.9727C143.047 52.9727 144.788 52.6471 146.221 51.9961C146.676 51.7682 147.083 51.6543 147.441 51.6543C147.799 51.6217 148.125 51.752 148.418 52.0449C148.743 52.3379 148.906 52.6634 148.906 53.0215C148.906 53.7376 148.613 54.2422 148.027 54.5352C147.474 54.8281 146.969 55.0885 146.514 55.3164C146.058 55.5443 145.57 55.7396 145.049 55.9023C143.844 56.2279 142.445 56.3906 140.85 56.3906C137.562 56.3906 135.007 55.4792 133.184 53.6562C131.393 51.8008 130.498 49.1803 130.498 45.7949C130.498 42.8652 131.263 40.4238 132.793 38.4707C134.518 36.2897 136.943 35.1992 140.068 35.1992C143.063 35.1992 145.423 36.2083 147.148 38.2266C148.776 40.1146 149.59 42.4746 149.59 45.3066C149.59 45.7949 149.411 46.2181 149.053 46.5762C148.727 46.9342 148.304 47.1133 147.783 47.1133H134.16ZM140.068 38.2754C137.692 38.2754 135.967 39.3333 134.893 41.4492C134.502 42.1979 134.258 43.0931 134.16 44.1348H145.977C145.879 42.2467 145.179 40.7493 143.877 39.6426C142.835 38.7311 141.566 38.2754 140.068 38.2754ZM167.998 52.9727C170.505 52.9727 172.848 52.3867 175.029 51.2148V43.9883H168.389C167.933 43.9883 167.542 43.8255 167.217 43.5C166.924 43.1745 166.777 42.7839 166.777 42.3281C166.777 41.8724 166.94 41.4818 167.266 41.1562C167.591 40.8307 167.965 40.668 168.389 40.668H176.299C176.82 40.668 177.259 40.8633 177.617 41.2539C178.008 41.612 178.203 42.0677 178.203 42.6211V51.6543C178.203 52.2402 178.057 52.7611 177.764 53.2168C177.503 53.64 177.145 53.9492 176.689 54.1445C173.695 55.6419 170.651 56.3906 167.559 56.3906C163.359 56.3906 159.974 55.056 157.402 52.3867C154.831 49.7174 153.529 46.2832 153.496 42.084C153.496 37.8522 154.847 34.3529 157.549 31.5859C160.12 28.9818 163.408 27.6797 167.412 27.6797C169.691 27.6797 171.611 27.9564 173.174 28.5098C174.736 29.0632 176.136 29.7467 177.373 30.5605C177.894 30.8535 178.154 31.2767 178.154 31.8301C178.154 32.3835 178.008 32.8229 177.715 33.1484C177.454 33.474 177.113 33.6367 176.689 33.6367C176.266 33.6367 175.924 33.5716 175.664 33.4414C173.092 31.944 170.472 31.1953 167.803 31.1953C164.71 31.1953 162.171 32.1393 160.186 34.0273C158.135 36.013 157.126 38.6986 157.158 42.084C157.158 45.2415 158.102 47.8294 159.99 49.8477C161.976 51.931 164.645 52.9727 167.998 52.9727ZM187.09 31.6836C189.629 29.0143 193.014 27.6797 197.246 27.6797C201.478 27.6797 204.863 29.0143 207.402 31.6836C209.876 34.3203 211.162 37.7708 211.26 42.0352C211.162 46.2669 209.876 49.7174 207.402 52.3867C204.863 55.056 201.478 56.3906 197.246 56.3906C193.014 56.3906 189.629 55.056 187.09 52.3867C184.551 49.7174 183.249 46.2669 183.184 42.0352C183.249 37.8034 184.551 34.3529 187.09 31.6836ZM197.246 52.9727C200.501 52.9727 203.057 51.931 204.912 49.8477C206.735 47.8294 207.646 45.2253 207.646 42.0352C207.646 38.8451 206.735 36.2409 204.912 34.2227C203.024 32.1068 200.469 31.0651 197.246 31.0977C193.991 31.0977 191.419 32.1393 189.531 34.2227C187.708 36.2409 186.813 38.8451 186.846 42.0352C186.846 45.2253 187.741 47.8294 189.531 49.8477C191.419 51.931 193.991 52.9727 197.246 52.9727ZM220.342 47.1133C220.309 47.8945 219.87 48.2852 219.023 48.2852C218.177 48.2852 217.738 47.8945 217.705 47.1133L216.973 33.9297V29.9258C216.973 29.3398 217.168 28.8516 217.559 28.4609C217.982 28.0703 218.47 27.875 219.023 27.875C219.609 27.875 220.098 28.0866 220.488 28.5098C220.911 28.9004 221.123 29.3724 221.123 29.9258V33.9297L220.342 47.1133ZM216.68 53.7539C216.68 53.1029 216.908 52.5495 217.363 52.0938C217.852 51.638 218.421 51.4102 219.072 51.4102C219.723 51.4102 220.277 51.638 220.732 52.0938C221.221 52.5495 221.465 53.1029 221.465 53.7539C221.465 54.4049 221.221 54.9746 220.732 55.4629C220.277 55.9186 219.723 56.1465 219.072 56.1465C218.421 56.1465 217.852 55.9186 217.363 55.4629C216.908 54.9746 216.68 54.4049 216.68 53.7539Z"/>
</mask>
<path d="M115.605 52.3867C116.126 52.3867 116.549 52.5658 116.875 52.9238C117.233 53.2493 117.412 53.6725 117.412 54.1934C117.412 54.6816 117.233 55.1048 116.875 55.4629C116.549 55.821 116.126 56 115.605 56H101.396C100.68 56 100.078 55.7559 99.5898 55.2676C99.1016 54.7793 98.8574 54.1771 98.8574 53.4609V29.7305C98.8574 29.2422 99.0365 28.819 99.3945 28.4609C99.7526 28.0703 100.176 27.875 100.664 27.875C101.152 27.875 101.576 28.054 101.934 28.4121C102.324 28.7702 102.52 29.2096 102.52 29.7305V52.3867H115.605ZM121.465 28.4121C121.465 27.8913 121.644 27.4681 122.002 27.1426C122.36 26.7845 122.799 26.6055 123.32 26.6055C123.841 26.6055 124.264 26.7845 124.59 27.1426C124.948 27.4681 125.127 27.8913 125.127 28.4121V54.3887C125.127 54.877 124.948 55.3001 124.59 55.6582C124.264 56.0163 123.841 56.1953 123.32 56.1953C122.799 56.1953 122.36 56.0163 122.002 55.6582C121.644 55.3001 121.465 54.877 121.465 54.3887V28.4121ZM134.16 47.1133C134.388 48.9036 135.072 50.3359 136.211 51.4102C137.383 52.4518 138.978 52.9727 140.996 52.9727C143.047 52.9727 144.788 52.6471 146.221 51.9961C146.676 51.7682 147.083 51.6543 147.441 51.6543C147.799 51.6217 148.125 51.752 148.418 52.0449C148.743 52.3379 148.906 52.6634 148.906 53.0215C148.906 53.7376 148.613 54.2422 148.027 54.5352C147.474 54.8281 146.969 55.0885 146.514 55.3164C146.058 55.5443 145.57 55.7396 145.049 55.9023C143.844 56.2279 142.445 56.3906 140.85 56.3906C137.562 56.3906 135.007 55.4792 133.184 53.6562C131.393 51.8008 130.498 49.1803 130.498 45.7949C130.498 42.8652 131.263 40.4238 132.793 38.4707C134.518 36.2897 136.943 35.1992 140.068 35.1992C143.063 35.1992 145.423 36.2083 147.148 38.2266C148.776 40.1146 149.59 42.4746 149.59 45.3066C149.59 45.7949 149.411 46.2181 149.053 46.5762C148.727 46.9342 148.304 47.1133 147.783 47.1133H134.16ZM140.068 38.2754C137.692 38.2754 135.967 39.3333 134.893 41.4492C134.502 42.1979 134.258 43.0931 134.16 44.1348H145.977C145.879 42.2467 145.179 40.7493 143.877 39.6426C142.835 38.7311 141.566 38.2754 140.068 38.2754ZM167.998 52.9727C170.505 52.9727 172.848 52.3867 175.029 51.2148V43.9883H168.389C167.933 43.9883 167.542 43.8255 167.217 43.5C166.924 43.1745 166.777 42.7839 166.777 42.3281C166.777 41.8724 166.94 41.4818 167.266 41.1562C167.591 40.8307 167.965 40.668 168.389 40.668H176.299C176.82 40.668 177.259 40.8633 177.617 41.2539C178.008 41.612 178.203 42.0677 178.203 42.6211V51.6543C178.203 52.2402 178.057 52.7611 177.764 53.2168C177.503 53.64 177.145 53.9492 176.689 54.1445C173.695 55.6419 170.651 56.3906 167.559 56.3906C163.359 56.3906 159.974 55.056 157.402 52.3867C154.831 49.7174 153.529 46.2832 153.496 42.084C153.496 37.8522 154.847 34.3529 157.549 31.5859C160.12 28.9818 163.408 27.6797 167.412 27.6797C169.691 27.6797 171.611 27.9564 173.174 28.5098C174.736 29.0632 176.136 29.7467 177.373 30.5605C177.894 30.8535 178.154 31.2767 178.154 31.8301C178.154 32.3835 178.008 32.8229 177.715 33.1484C177.454 33.474 177.113 33.6367 176.689 33.6367C176.266 33.6367 175.924 33.5716 175.664 33.4414C173.092 31.944 170.472 31.1953 167.803 31.1953C164.71 31.1953 162.171 32.1393 160.186 34.0273C158.135 36.013 157.126 38.6986 157.158 42.084C157.158 45.2415 158.102 47.8294 159.99 49.8477C161.976 51.931 164.645 52.9727 167.998 52.9727ZM187.09 31.6836C189.629 29.0143 193.014 27.6797 197.246 27.6797C201.478 27.6797 204.863 29.0143 207.402 31.6836C209.876 34.3203 211.162 37.7708 211.26 42.0352C211.162 46.2669 209.876 49.7174 207.402 52.3867C204.863 55.056 201.478 56.3906 197.246 56.3906C193.014 56.3906 189.629 55.056 187.09 52.3867C184.551 49.7174 183.249 46.2669 183.184 42.0352C183.249 37.8034 184.551 34.3529 187.09 31.6836ZM197.246 52.9727C200.501 52.9727 203.057 51.931 204.912 49.8477C206.735 47.8294 207.646 45.2253 207.646 42.0352C207.646 38.8451 206.735 36.2409 204.912 34.2227C203.024 32.1068 200.469 31.0651 197.246 31.0977C193.991 31.0977 191.419 32.1393 189.531 34.2227C187.708 36.2409 186.813 38.8451 186.846 42.0352C186.846 45.2253 187.741 47.8294 189.531 49.8477C191.419 51.931 193.991 52.9727 197.246 52.9727ZM220.342 47.1133C220.309 47.8945 219.87 48.2852 219.023 48.2852C218.177 48.2852 217.738 47.8945 217.705 47.1133L216.973 33.9297V29.9258C216.973 29.3398 217.168 28.8516 217.559 28.4609C217.982 28.0703 218.47 27.875 219.023 27.875C219.609 27.875 220.098 28.0866 220.488 28.5098C220.911 28.9004 221.123 29.3724 221.123 29.9258V33.9297L220.342 47.1133ZM216.68 53.7539C216.68 53.1029 216.908 52.5495 217.363 52.0938C217.852 51.638 218.421 51.4102 219.072 51.4102C219.723 51.4102 220.277 51.638 220.732 52.0938C221.221 52.5495 221.465 53.1029 221.465 53.7539C221.465 54.4049 221.221 54.9746 220.732 55.4629C220.277 55.9186 219.723 56.1465 219.072 56.1465C218.421 56.1465 217.852 55.9186 217.363 55.4629C216.908 54.9746 216.68 54.4049 216.68 53.7539Z" fill="#272926"/>
<path d="M116.875 52.9238L116.135 53.5965L116.167 53.6317L116.202 53.6638L116.875 52.9238ZM116.875 55.4629L116.168 54.7558L116.151 54.7726L116.135 54.7902L116.875 55.4629ZM99.3945 28.4609L100.102 29.168L100.117 29.1527L100.132 29.1367L99.3945 28.4609ZM101.934 28.4121L101.226 29.1192L101.242 29.1346L101.258 29.1493L101.934 28.4121ZM102.52 52.3867H101.52V53.3867H102.52V52.3867ZM115.605 53.3867C115.869 53.3867 116.015 53.4641 116.135 53.5965L117.615 52.2512C117.084 51.6674 116.384 51.3867 115.605 51.3867V53.3867ZM116.202 53.6638C116.335 53.7841 116.412 53.9301 116.412 54.1934H118.412C118.412 53.4149 118.131 52.7146 117.548 52.1839L116.202 53.6638ZM116.412 54.1934C116.412 54.4056 116.346 54.5775 116.168 54.7558L117.582 56.17C118.12 55.6322 118.412 54.9576 118.412 54.1934H116.412ZM116.135 54.7902C116.015 54.9226 115.869 55 115.605 55V57C116.384 57 117.084 56.7193 117.615 56.1356L116.135 54.7902ZM115.605 55H101.396V57H115.605V55ZM101.396 55C100.935 55 100.59 54.8536 100.297 54.5605L98.8827 55.9747C99.5662 56.6581 100.426 57 101.396 57V55ZM100.297 54.5605C100.004 54.2674 99.8574 53.9229 99.8574 53.4609H97.8574C97.8574 54.4313 98.1993 55.2912 98.8827 55.9747L100.297 54.5605ZM99.8574 53.4609V29.7305H97.8574V53.4609H99.8574ZM99.8574 29.7305C99.8574 29.5182 99.9233 29.3463 100.102 29.168L98.6874 27.7538C98.1496 28.2917 97.8574 28.9662 97.8574 29.7305H99.8574ZM100.132 29.1367C100.318 28.933 100.482 28.875 100.664 28.875V26.875C99.8698 26.875 99.1868 27.2077 98.6574 27.7852L100.132 29.1367ZM100.664 28.875C100.876 28.875 101.048 28.9409 101.226 29.1192L102.641 27.705C102.103 27.1672 101.428 26.875 100.664 26.875V28.875ZM101.258 29.1493C101.446 29.3217 101.52 29.4955 101.52 29.7305H103.52C103.52 28.9238 103.202 28.2187 102.609 27.675L101.258 29.1493ZM101.52 29.7305V52.3867H103.52V29.7305H101.52ZM102.52 53.3867H115.605V51.3867H102.52V53.3867ZM122.002 27.1426L122.675 27.8825L122.692 27.8665L122.709 27.8497L122.002 27.1426ZM124.59 27.1426L123.85 27.8153L123.882 27.8505L123.917 27.8825L124.59 27.1426ZM124.59 55.6582L123.883 54.9511L123.866 54.9679L123.85 54.9855L124.59 55.6582ZM122.465 28.4121C122.465 28.1489 122.542 28.0029 122.675 27.8825L121.329 26.4026C120.746 26.9333 120.465 27.6337 120.465 28.4121H122.465ZM122.709 27.8497C122.874 27.685 123.056 27.6055 123.32 27.6055V25.6055C122.543 25.6055 121.846 25.884 121.295 26.4355L122.709 27.8497ZM123.32 27.6055C123.584 27.6055 123.73 27.6829 123.85 27.8153L125.33 26.4699C124.799 25.8862 124.099 25.6055 123.32 25.6055V27.6055ZM123.917 27.8825C124.05 28.0029 124.127 28.1489 124.127 28.4121H126.127C126.127 27.6337 125.846 26.9333 125.263 26.4026L123.917 27.8825ZM124.127 28.4121V54.3887H126.127V28.4121H124.127ZM124.127 54.3887C124.127 54.601 124.061 54.7728 123.883 54.9511L125.297 56.3653C125.835 55.8275 126.127 55.153 126.127 54.3887H124.127ZM123.85 54.9855C123.73 55.1179 123.584 55.1953 123.32 55.1953V57.1953C124.099 57.1953 124.799 56.9146 125.33 56.3309L123.85 54.9855ZM123.32 55.1953C123.056 55.1953 122.874 55.1157 122.709 54.9511L121.295 56.3653C121.846 56.9168 122.543 57.1953 123.32 57.1953V55.1953ZM122.709 54.9511C122.531 54.7728 122.465 54.601 122.465 54.3887H120.465C120.465 55.153 120.757 55.8275 121.295 56.3653L122.709 54.9511ZM122.465 54.3887V28.4121H120.465V54.3887H122.465ZM134.16 47.1133V46.1133H133.025L133.168 47.2395L134.16 47.1133ZM136.211 51.4102L135.525 52.1377L135.536 52.1478L135.547 52.1576L136.211 51.4102ZM146.221 51.9961L146.635 52.9065L146.651 52.8988L146.668 52.8905L146.221 51.9961ZM147.441 51.6543V52.6543H147.487L147.532 52.6502L147.441 51.6543ZM148.418 52.0449L147.711 52.752L147.729 52.7706L147.749 52.7882L148.418 52.0449ZM148.027 54.5352L147.58 53.6407L147.57 53.6459L147.559 53.6514L148.027 54.5352ZM145.049 55.9023L145.31 56.8677L145.329 56.8626L145.347 56.8568L145.049 55.9023ZM133.184 53.6562L132.464 54.3506L132.47 54.357L132.476 54.3634L133.184 53.6562ZM132.793 38.4707L132.009 37.8503L132.006 37.854L132.793 38.4707ZM147.148 38.2266L146.388 38.8763L146.391 38.8795L147.148 38.2266ZM149.053 46.5762L148.346 45.8691L148.329 45.8859L148.313 45.9035L149.053 46.5762ZM134.893 41.4492L135.779 41.9118L135.784 41.9019L134.893 41.4492ZM134.16 44.1348L133.165 44.0414L133.062 45.1348H134.16V44.1348ZM145.977 44.1348V45.1348H147.03L146.975 44.0831L145.977 44.1348ZM143.877 39.6426L143.218 40.3952L143.224 40.3999L143.229 40.4045L143.877 39.6426ZM133.168 47.2395C133.421 49.2228 134.192 50.8808 135.525 52.1377L136.897 50.6826C135.951 49.7911 135.355 48.5845 135.152 46.987L133.168 47.2395ZM135.547 52.1576C136.949 53.4043 138.805 53.9727 140.996 53.9727V51.9727C139.15 51.9727 137.816 51.4993 136.875 50.6627L135.547 52.1576ZM140.996 53.9727C143.148 53.9727 145.039 53.6316 146.635 52.9065L145.807 51.0857C144.538 51.6627 142.946 51.9727 140.996 51.9727V53.9727ZM146.668 52.8905C147.04 52.7047 147.29 52.6543 147.441 52.6543V50.6543C146.877 50.6543 146.313 50.8318 145.773 51.1017L146.668 52.8905ZM147.532 52.6502C147.558 52.6478 147.57 52.651 147.583 52.656C147.599 52.6625 147.643 52.6842 147.711 52.752L149.125 51.3378C148.658 50.8707 148.051 50.5947 147.351 50.6584L147.532 52.6502ZM147.749 52.7882C147.915 52.9373 147.906 53.0088 147.906 53.0215H149.906C149.906 52.318 149.572 51.7385 149.087 51.3016L147.749 52.7882ZM147.906 53.0215C147.906 53.2431 147.862 53.3663 147.822 53.4349C147.785 53.4982 147.721 53.5704 147.58 53.6407L148.475 55.4296C148.92 55.2069 149.295 54.8803 149.551 54.4391C149.804 54.0032 149.906 53.516 149.906 53.0215H147.906ZM147.559 53.6514C147.011 53.9415 146.514 54.1983 146.066 54.422L146.961 56.2108C147.425 55.9788 147.936 55.7148 148.495 55.4189L147.559 53.6514ZM146.066 54.422C145.662 54.6242 145.224 54.8 144.751 54.9479L145.347 56.8568C145.916 56.6792 146.454 56.4643 146.961 56.2108L146.066 54.422ZM144.788 54.937C143.688 55.2342 142.38 55.3906 140.85 55.3906V57.3906C142.51 57.3906 144 57.2216 145.31 56.8677L144.788 54.937ZM140.85 55.3906C137.75 55.3906 135.478 54.5365 133.891 52.9491L132.476 54.3634C134.535 56.4218 137.373 57.3906 140.85 57.3906V55.3906ZM133.903 52.9619C132.344 51.3455 131.498 49.0051 131.498 45.7949H129.498C129.498 49.3556 130.443 52.2561 132.464 54.3506L133.903 52.9619ZM131.498 45.7949C131.498 43.0468 132.212 40.8341 133.58 39.0874L132.006 37.854C130.314 40.0136 129.498 42.6837 129.498 45.7949H131.498ZM133.577 39.0911C135.088 37.1817 137.206 36.1992 140.068 36.1992V34.1992C136.681 34.1992 133.949 35.3978 132.009 37.8503L133.577 39.0911ZM140.068 36.1992C142.813 36.1992 144.879 37.1103 146.388 38.8763L147.909 37.5768C145.968 35.3063 143.314 34.1992 140.068 34.1992V36.1992ZM146.391 38.8795C147.841 40.5613 148.59 42.6796 148.59 45.3066H150.59C150.59 42.2697 149.711 39.6679 147.906 37.5736L146.391 38.8795ZM148.59 45.3066C148.59 45.5189 148.524 45.6908 148.346 45.8691L149.76 47.2833C150.298 46.7454 150.59 46.0709 150.59 45.3066H148.59ZM148.313 45.9035C148.192 46.0359 148.046 46.1133 147.783 46.1133V48.1133C148.562 48.1133 149.262 47.8326 149.793 47.2488L148.313 45.9035ZM147.783 46.1133H134.16V48.1133H147.783V46.1133ZM140.068 37.2754C138.728 37.2754 137.515 37.5752 136.469 38.2164C135.424 38.8576 134.607 39.8026 134.001 40.9965L135.784 41.9019C136.252 40.9799 136.835 40.3381 137.515 39.9213C138.195 39.5045 139.032 39.2754 140.068 39.2754V37.2754ZM134.006 40.9867C133.543 41.8741 133.271 42.9006 133.165 44.0414L135.156 44.2281C135.244 43.2856 135.461 42.5218 135.779 41.9118L134.006 40.9867ZM134.16 45.1348H145.977V43.1348H134.16V45.1348ZM146.975 44.0831C146.865 41.9525 146.06 40.1857 144.525 38.8806L143.229 40.4045C144.298 41.313 144.893 42.541 144.978 44.1864L146.975 44.0831ZM144.535 38.89C143.296 37.8055 141.787 37.2754 140.068 37.2754V39.2754C141.345 39.2754 142.375 39.6568 143.218 40.3952L144.535 38.89ZM175.029 51.2148L175.503 52.0957L176.029 51.8127V51.2148H175.029ZM175.029 43.9883H176.029V42.9883H175.029V43.9883ZM167.217 43.5L166.474 44.169L166.491 44.1885L166.51 44.2071L167.217 43.5ZM167.266 41.1562L166.559 40.4491L167.266 41.1562ZM177.617 41.2539L176.88 41.9296L176.909 41.9617L176.941 41.9911L177.617 41.2539ZM177.764 53.2168L176.922 52.676L176.917 52.6843L176.912 52.6927L177.764 53.2168ZM176.689 54.1445L176.296 53.2254L176.269 53.237L176.242 53.2501L176.689 54.1445ZM153.496 42.084H152.496L152.496 42.0917L153.496 42.084ZM157.549 31.5859L156.837 30.8833L156.833 30.8873L157.549 31.5859ZM177.373 30.5605L176.823 31.396L176.852 31.4151L176.883 31.4321L177.373 30.5605ZM177.715 33.1484L176.972 32.4795L176.952 32.5011L176.934 32.5237L177.715 33.1484ZM175.664 33.4414L175.161 34.3056L175.188 34.3216L175.217 34.3358L175.664 33.4414ZM160.186 34.0273L159.496 33.3026L159.49 33.3089L160.186 34.0273ZM157.158 42.084H158.158L158.158 42.0744L157.158 42.084ZM159.99 49.8477L159.26 50.5308L159.266 50.5376L159.99 49.8477ZM167.998 53.9727C170.668 53.9727 173.174 53.3468 175.503 52.0957L174.556 50.334C172.522 51.4266 170.341 51.9727 167.998 51.9727V53.9727ZM176.029 51.2148V43.9883H174.029V51.2148H176.029ZM175.029 42.9883H168.389V44.9883H175.029V42.9883ZM168.389 42.9883C168.201 42.9883 168.064 42.933 167.924 42.7929L166.51 44.2071C167.021 44.718 167.665 44.9883 168.389 44.9883V42.9883ZM167.96 42.831C167.84 42.6972 167.777 42.5478 167.777 42.3281H165.777C165.777 43.0199 166.008 43.6518 166.474 44.169L167.96 42.831ZM167.777 42.3281C167.777 42.1406 167.833 42.0035 167.973 41.8634L166.559 40.4491C166.048 40.9601 165.777 41.6042 165.777 42.3281H167.777ZM167.973 41.8634C168.129 41.7072 168.255 41.668 168.389 41.668V39.668C167.676 39.668 167.053 39.9542 166.559 40.4491L167.973 41.8634ZM168.389 41.668H176.299V39.668H168.389V41.668ZM176.299 41.668C176.534 41.668 176.708 41.7415 176.88 41.9296L178.354 40.5782C177.811 39.985 177.105 39.668 176.299 39.668V41.668ZM176.941 41.9911C177.115 42.1504 177.203 42.334 177.203 42.6211H179.203C179.203 41.8014 178.9 41.0735 178.293 40.5168L176.941 41.9911ZM177.203 42.6211V51.6543H179.203V42.6211H177.203ZM177.203 51.6543C177.203 52.0648 177.103 52.3948 176.922 52.676L178.605 53.7576C179.01 53.1273 179.203 52.4157 179.203 51.6543H177.203ZM176.912 52.6927C176.76 52.9405 176.561 53.1116 176.296 53.2254L177.083 55.0637C177.729 54.7869 178.247 54.3394 178.615 53.7409L176.912 52.6927ZM176.242 53.2501C173.375 54.6839 170.483 55.3906 167.559 55.3906V57.3906C170.819 57.3906 174.015 56.5999 177.137 55.039L176.242 53.2501ZM167.559 55.3906C163.591 55.3906 160.48 54.1398 158.123 51.6929L156.682 53.0805C159.468 55.9722 163.127 57.3906 167.559 57.3906V55.3906ZM158.123 51.6929C155.753 49.233 154.527 46.0562 154.496 42.0762L152.496 42.0917C152.53 46.5102 153.909 50.2019 156.682 53.0805L158.123 51.6929ZM154.496 42.084C154.496 38.0863 155.763 34.8462 158.264 32.2846L156.833 30.8873C153.931 33.8595 152.496 37.6181 152.496 42.084H154.496ZM158.26 32.2886C160.625 29.8935 163.648 28.6797 167.412 28.6797V26.6797C163.169 26.6797 159.615 28.07 156.837 30.8833L158.26 32.2886ZM167.412 28.6797C169.617 28.6797 171.417 28.9483 172.84 29.4524L173.508 27.5671C171.806 26.9645 169.765 26.6797 167.412 26.6797V28.6797ZM172.84 29.4524C174.335 29.982 175.661 30.6314 176.823 31.396L177.923 29.7251C176.611 28.8621 175.137 28.1443 173.508 27.5671L172.84 29.4524ZM176.883 31.4321C177.12 31.5653 177.154 31.672 177.154 31.8301H179.154C179.154 30.8814 178.668 30.1417 177.863 29.689L176.883 31.4321ZM177.154 31.8301C177.154 32.2039 177.059 32.3822 176.972 32.4795L178.458 33.8174C178.957 33.2636 179.154 32.563 179.154 31.8301H177.154ZM176.934 32.5237C176.867 32.6079 176.814 32.6367 176.689 32.6367V34.6367C177.411 34.6367 178.042 34.34 178.496 33.7731L176.934 32.5237ZM176.689 32.6367C176.356 32.6367 176.184 32.5835 176.111 32.547L175.217 34.3358C175.665 34.5597 176.176 34.6367 176.689 34.6367V32.6367ZM176.167 32.5772C173.461 31.0013 170.668 30.1953 167.803 30.1953V32.1953C170.276 32.1953 172.724 32.8867 175.161 34.3056L176.167 32.5772ZM167.803 30.1953C164.489 30.1953 161.692 31.2147 159.496 33.3026L160.875 34.752C162.65 33.0639 164.931 32.1953 167.803 32.1953V30.1953ZM159.49 33.3089C157.206 35.5206 156.124 38.4893 156.158 42.0936L158.158 42.0744C158.128 38.9079 159.064 36.5055 160.881 34.7458L159.49 33.3089ZM156.158 42.084C156.158 45.4563 157.174 48.3008 159.26 50.5308L160.721 49.1645C159.031 47.3581 158.158 45.0267 158.158 42.084H156.158ZM159.266 50.5376C161.472 52.8519 164.421 53.9727 167.998 53.9727V51.9727C164.87 51.9727 162.48 51.0101 160.714 49.1577L159.266 50.5376ZM187.09 31.6836L186.365 30.9944L187.09 31.6836ZM207.402 31.6836L208.132 30.9993L208.127 30.9944L207.402 31.6836ZM211.26 42.0352L212.259 42.0582L212.26 42.0352L212.26 42.0123L211.26 42.0352ZM207.402 52.3867L208.127 53.076L208.136 53.0665L207.402 52.3867ZM183.184 42.0352L182.184 42.0198L182.183 42.0352L182.184 42.0505L183.184 42.0352ZM204.912 49.8477L204.17 49.1774L204.165 49.1826L204.912 49.8477ZM204.912 34.2227L204.166 34.8885L204.17 34.8929L204.912 34.2227ZM197.246 31.0977V32.0977L197.256 32.0976L197.246 31.0977ZM189.531 34.2227L188.79 33.5511L188.789 33.5524L189.531 34.2227ZM186.846 42.0352H187.846L187.846 42.025L186.846 42.0352ZM189.531 49.8477L188.783 50.5113L188.79 50.5192L189.531 49.8477ZM187.814 32.3728C190.136 29.9321 193.244 28.6797 197.246 28.6797V26.6797C192.785 26.6797 189.122 28.0966 186.365 30.9944L187.814 32.3728ZM197.246 28.6797C201.249 28.6797 204.356 29.9321 206.678 32.3728L208.127 30.9944C205.37 28.0966 201.707 26.6797 197.246 26.6797V28.6797ZM206.673 32.3678C208.949 34.7935 210.167 37.9931 210.26 42.0581L212.26 42.0123C212.157 37.5485 210.804 33.8472 208.132 30.9994L206.673 32.3678ZM210.26 42.0121C210.167 46.042 208.95 49.2455 206.669 51.707L208.136 53.0665C210.802 50.1894 212.157 46.4918 212.259 42.0582L210.26 42.0121ZM206.678 51.6975C204.356 54.1382 201.249 55.3906 197.246 55.3906V57.3906C201.707 57.3906 205.37 55.9738 208.127 53.0759L206.678 51.6975ZM197.246 55.3906C193.244 55.3906 190.136 54.1382 187.814 51.6975L186.365 53.0759C189.122 55.9738 192.785 57.3906 197.246 57.3906V55.3906ZM187.814 51.6975C185.474 49.2374 184.245 46.0404 184.183 42.0198L182.184 42.0505C182.252 46.4935 183.627 50.1975 186.365 53.0759L187.814 51.6975ZM184.183 42.0505C184.245 38.0299 185.474 34.8329 187.814 32.3728L186.365 30.9944C183.627 33.8728 182.252 37.5768 182.184 42.0198L184.183 42.0505ZM197.246 53.9727C200.734 53.9727 203.581 52.8453 205.659 50.5127L204.165 49.1826C202.532 51.0166 200.268 51.9727 197.246 51.9727V53.9727ZM205.654 50.5179C207.671 48.2848 208.646 45.4274 208.646 42.0352H206.646C206.646 45.0231 205.799 47.3741 204.17 49.1774L205.654 50.5179ZM208.646 42.0352C208.646 38.6429 207.671 35.7856 205.654 33.5524L204.17 34.8929C205.799 36.6962 206.646 39.0472 206.646 42.0352H208.646ZM205.658 33.5569C203.551 31.1951 200.703 30.0627 197.236 30.0977L197.256 32.0976C200.234 32.0675 202.497 33.0185 204.166 34.8884L205.658 33.5569ZM197.246 30.0977C193.758 30.0977 190.898 31.2249 188.79 33.5511L190.272 34.8942C191.94 33.0537 194.224 32.0977 197.246 32.0977V30.0977ZM188.789 33.5524C186.769 35.7887 185.811 38.6504 185.846 42.0454L187.846 42.025C187.815 39.0397 188.647 36.6931 190.273 34.8929L188.789 33.5524ZM185.846 42.0352C185.846 45.4227 186.802 48.2777 188.783 50.5113L190.279 49.184C188.68 47.3812 187.846 45.0278 187.846 42.0352H185.846ZM188.79 50.5192C190.898 52.8454 193.758 53.9727 197.246 53.9727V51.9727C194.224 51.9727 191.94 51.0166 190.272 49.1761L188.79 50.5192ZM220.342 47.1133L219.344 47.0541L219.343 47.0629L219.343 47.0717L220.342 47.1133ZM217.705 47.1133L218.704 47.0716L218.704 47.0578L217.705 47.1133ZM216.973 33.9297H215.973V33.9574L215.974 33.9852L216.973 33.9297ZM217.559 28.4609L216.88 27.7261L216.866 27.7397L216.851 27.7538L217.559 28.4609ZM220.488 28.5098L219.753 29.188L219.781 29.2174L219.81 29.2446L220.488 28.5098ZM221.123 33.9297L222.121 33.9888L222.123 33.9593V33.9297H221.123ZM217.363 52.0938L216.681 51.3627L216.668 51.3745L216.656 51.3866L217.363 52.0938ZM220.732 52.0938L220.025 52.8009L220.038 52.813L220.05 52.8248L220.732 52.0938ZM217.363 55.4629L216.632 56.1452L216.656 56.1704L216.681 56.1939L217.363 55.4629ZM219.343 47.0717C219.338 47.1791 219.321 47.2334 219.314 47.2524C219.308 47.2665 219.309 47.2572 219.323 47.2448C219.353 47.2184 219.308 47.2852 219.023 47.2852V49.2852C219.585 49.2852 220.183 49.1566 220.652 48.7396C221.135 48.3105 221.317 47.7235 221.341 47.1549L219.343 47.0717ZM219.023 47.2852C218.739 47.2852 218.694 47.2184 218.723 47.2448C218.737 47.2572 218.739 47.2665 218.733 47.2524C218.726 47.2334 218.709 47.1791 218.704 47.0717L216.706 47.1549C216.73 47.7235 216.912 48.3105 217.395 48.7396C217.864 49.1566 218.462 49.2852 219.023 49.2852V47.2852ZM218.704 47.0578L217.971 33.8742L215.974 33.9852L216.707 47.1688L218.704 47.0578ZM217.973 33.9297V29.9258H215.973V33.9297H217.973ZM217.973 29.9258C217.973 29.5872 218.075 29.3589 218.266 29.168L216.851 27.7538C216.261 28.3443 215.973 29.0925 215.973 29.9258H217.973ZM218.237 29.1957C218.484 28.968 218.732 28.875 219.023 28.875V26.875C218.208 26.875 217.48 27.1726 216.88 27.7261L218.237 29.1957ZM219.023 28.875C219.336 28.875 219.556 28.974 219.753 29.188L221.223 27.8315C220.639 27.1992 219.883 26.875 219.023 26.875V28.875ZM219.81 29.2446C220.038 29.4546 220.123 29.6641 220.123 29.9258H222.123C222.123 29.0807 221.785 28.3462 221.167 27.775L219.81 29.2446ZM220.123 29.9258V33.9297H222.123V29.9258H220.123ZM220.125 33.8705L219.344 47.0541L221.34 47.1724L222.121 33.9888L220.125 33.8705ZM217.68 53.7539C217.68 53.3651 217.804 53.0669 218.07 52.8009L216.656 51.3866C216.011 52.032 215.68 52.8407 215.68 53.7539H217.68ZM218.046 52.8248C218.354 52.5369 218.682 52.4102 219.072 52.4102V50.4102C218.161 50.4102 217.349 50.7391 216.681 51.3627L218.046 52.8248ZM219.072 52.4102C219.461 52.4102 219.759 52.5348 220.025 52.8009L221.44 51.3866C220.794 50.7412 219.985 50.4102 219.072 50.4102V52.4102ZM220.05 52.8248C220.342 53.097 220.465 53.3881 220.465 53.7539H222.465C222.465 52.8177 222.1 52.002 221.415 51.3627L220.05 52.8248ZM220.465 53.7539C220.465 54.1224 220.339 54.4424 220.025 54.7558L221.44 56.17C222.103 55.5068 222.465 54.6875 222.465 53.7539H220.465ZM220.025 54.7558C219.759 55.0218 219.461 55.1465 219.072 55.1465V57.1465C219.985 57.1465 220.794 56.8154 221.44 56.17L220.025 54.7558ZM219.072 55.1465C218.682 55.1465 218.354 55.0197 218.046 54.7318L216.681 56.1939C217.349 56.8175 218.161 57.1465 219.072 57.1465V55.1465ZM218.094 54.7806C217.806 54.4721 217.68 54.1445 217.68 53.7539H215.68C215.68 54.6654 216.009 55.4771 216.632 56.1452L218.094 54.7806Z" fill="black" mask="url(#path-1-outside-1_202_632)"/>
<path d="M81.0012 56.3657L42 78.9552L2.99881 56.3657L42 33.8487L81.0012 56.3657Z" fill="#272926" stroke="#272926"/>
<path d="M43.04 76.2175L10.6094 57.4902L43.04 38.7731L75.4706 57.4902L43.04 76.2175Z" fill="black" stroke="#272926"/>
<path d="M9.82275 19.7618L42.5399 0.866169V37.9079L41.851 38.3077L9.82275 19.7618Z" fill="#019F67" stroke="#272926"/>
<path d="M44.2382 38.3083L43.5398 37.9066V0.86617L76.2571 19.7618L44.2382 38.3083Z" fill="#019F67" stroke="#272926"/>
<path d="M42.5399 75.9289L9.32397 56.7556V20.6285L42.5399 39.8637V75.9289Z" fill="#019F67" stroke="#272926"/>
<path d="M76.7558 20.6284V56.7554L43.5398 75.9288V39.8635L76.7558 20.6284Z" fill="#019F67" stroke="#272926"/>
<mask id="path-9-inside-2_202_632" fill="white">
<path d="M43.0398 39.5753L43.8251 75.3726L72.48 59.7928L43.0398 76.7947V39.5753Z"/>
</mask>
<path d="M43.0398 39.5753L43.8251 75.3726L72.48 59.7928L43.0398 76.7947V39.5753Z" fill="#019F67"/>
<path d="M43.0398 39.5753L44.0396 39.5533L42.0398 39.5753H43.0398ZM43.8251 75.3726L42.8254 75.3945L42.8614 77.0348L44.3028 76.2511L43.8251 75.3726ZM72.48 59.7928L72.9801 60.6588L72.0023 58.9143L72.48 59.7928ZM43.0398 76.7947H42.0398V78.527L43.5399 77.6607L43.0398 76.7947ZM42.04 39.5972L42.8254 75.3945L44.8249 75.3506L44.0396 39.5533L42.04 39.5972ZM44.3028 76.2511L72.9576 60.6714L72.0023 58.9143L43.3475 74.494L44.3028 76.2511ZM71.9799 58.9269L42.5397 75.9287L43.5399 77.6607L72.9801 60.6588L71.9799 58.9269ZM44.0398 76.7947V39.5753H42.0398V76.7947H44.0398Z" fill="#272926" mask="url(#path-9-inside-2_202_632)"/>
<path d="M76.2572 19.7618L43.0399 38.9977L9.82272 19.7618L43.0399 0.577398L76.2572 19.7618Z" fill="#019F67" stroke="#272926"/>
<path d="M36.5923 35.2638L42.8031 38.6043L43.0399 38.7317L43.2768 38.6043L49.4876 35.2638L43.0399 38.9976L36.5923 35.2638Z" fill="#272926" stroke="#272926"/>
<path d="M11 59L7.29199 55.2451C4.69515 52.6154 2.97072 49.2501 2.35292 45.6064L2.02669 43.6823C1.63585 41.3772 1.55773 39.0298 1.79443 36.7038L2.10246 33.6769C2.51901 29.5836 4.49643 25.8081 7.62395 23.1347L10.1245 20.9971" stroke="#272926" stroke-width="2" stroke-linejoin="round"/>
<path d="M42.8774 76.0884L39.3167 72.5297C36.6823 69.8969 34.9295 66.5116 34.3 62.8407L34.0307 61.2705C33.6303 58.9358 33.5508 56.5574 33.7945 54.2012L34.0662 51.5737C34.4922 47.4546 36.4985 43.6611 39.6635 40.9907L42.0229 39" stroke="#272926" stroke-width="2" stroke-linejoin="round"/>
<circle cx="76.5" cy="20.4999" r="1" fill="#019F67" stroke="#272926"/>
<path d="M78.0821 19.875L77.2026 18.9954L81.3444 14.7458L83.1721 16.9346L78.0821 19.875Z" fill="#019F67" stroke="#272926"/>
</svg>
