<svg width="120" height="40" viewBox="0 0 120 40" fill="none" xmlns="http://www.w3.org/2000/svg">
<g clip-path="url(#clip0_18_25)">
<path d="M55.199 26.1933C55.4453 26.1933 55.6454 26.2829 55.7995 26.4619C55.9688 26.6246 56.0535 26.8362 56.0535 27.0967C56.0535 27.3408 55.9688 27.5524 55.7995 27.7314C55.6454 27.9105 55.4453 28 55.199 28H48.4798C48.1412 28 47.8565 27.8779 47.6256 27.6338C47.3948 27.3896 47.2793 27.0885 47.2793 26.7304V14.8652C47.2793 14.6211 47.364 14.4095 47.5333 14.2304C47.7026 14.0351 47.9028 13.9375 48.1336 13.9375C48.3644 13.9375 48.5649 14.027 48.7342 14.206C48.9186 14.3851 49.0113 14.6048 49.0113 14.8652V26.1933H55.199ZM57.9701 14.206C57.9701 13.9456 58.0547 13.734 58.224 13.5713C58.3933 13.3922 58.6009 13.3027 58.8473 13.3027C59.0936 13.3027 59.2937 13.3922 59.4478 13.5713C59.6171 13.734 59.7018 13.9456 59.7018 14.206V27.1943C59.7018 27.4385 59.6171 27.65 59.4478 27.8291C59.2937 28.0081 59.0936 28.0976 58.8473 28.0976C58.6009 28.0976 58.3933 28.0081 58.224 27.8291C58.0547 27.65 57.9701 27.4385 57.9701 27.1943V14.206ZM63.9733 23.5566C64.0811 24.4518 64.4046 25.1679 64.9432 25.7051C65.4974 26.2259 66.2517 26.4863 67.2059 26.4863C68.1758 26.4863 68.9991 26.3235 69.6768 25.998C69.8919 25.8841 70.0844 25.8271 70.2537 25.8271C70.423 25.8108 70.5771 25.876 70.7157 26.0224C70.8694 26.1689 70.9465 26.3317 70.9465 26.5107C70.9465 26.8688 70.8079 27.1211 70.5308 27.2676C70.2693 27.414 70.0305 27.5442 69.8153 27.6582C69.5997 27.7721 69.3689 27.8698 69.1225 27.9511C68.5527 28.1139 67.8912 28.1953 67.1369 28.1953C65.5821 28.1953 64.3739 27.7396 63.5118 26.8281C62.6649 25.9004 62.2416 24.5901 62.2416 22.8974C62.2416 21.4326 62.6034 20.2119 63.3269 19.2353C64.1426 18.1448 65.2893 17.5996 66.7671 17.5996C68.1834 17.5996 69.2994 18.1041 70.1151 19.1133C70.885 20.0573 71.2699 21.2373 71.2699 22.6533C71.2699 22.8974 71.1853 23.109 71.016 23.2881C70.8618 23.4671 70.6618 23.5566 70.4154 23.5566H63.9733ZM66.7671 19.1377C65.6435 19.1377 64.8278 19.6666 64.3199 20.7246C64.135 21.0989 64.0197 21.5465 63.9733 22.0674H69.5614C69.515 21.1233 69.184 20.3746 68.5683 19.8213C68.0756 19.3655 67.4755 19.1377 66.7671 19.1377ZM79.9748 26.4863C81.1603 26.4863 82.2682 26.1933 83.2996 25.6074V21.9941H80.1597C79.944 21.9941 79.7591 21.9127 79.6054 21.75C79.4669 21.5872 79.3974 21.3919 79.3974 21.164C79.3974 20.9362 79.4744 20.7409 79.6286 20.5781C79.7823 20.4153 79.9592 20.334 80.1597 20.334H83.9002C84.1465 20.334 84.3541 20.4316 84.5234 20.6269C84.7083 20.806 84.8005 21.0338 84.8005 21.3105V25.8271C84.8005 26.1201 84.7315 26.3805 84.5929 26.6084C84.4695 26.82 84.3002 26.9746 84.0846 27.0722C82.6688 27.8209 81.2293 28.1953 79.7672 28.1953C77.781 28.1953 76.1803 27.528 74.9641 26.1933C73.7483 24.8587 73.1326 23.1416 73.117 21.042C73.117 18.9261 73.7559 17.1764 75.0336 15.7929C76.2494 14.4909 77.8042 13.8398 79.6976 13.8398C80.7753 13.8398 81.6833 13.9782 82.4224 14.2549C83.161 14.5316 83.8231 14.8733 84.408 15.2802C84.6544 15.4267 84.7774 15.6383 84.7774 15.915C84.7774 16.1917 84.7083 16.4114 84.5698 16.5742C84.4463 16.737 84.2851 16.8183 84.0846 16.8183C83.8846 16.8183 83.7228 16.7858 83.5999 16.7207C82.3836 15.972 81.1447 15.5976 79.8825 15.5976C78.4199 15.5976 77.2193 16.0696 76.2806 17.0136C75.3107 18.0065 74.8336 19.3493 74.8487 21.042C74.8487 22.6207 75.2951 23.9147 76.1879 24.9238C77.1271 25.9655 78.3892 26.4863 79.9748 26.4863ZM89.003 15.8418C90.2037 14.5071 91.8044 13.8398 93.8057 13.8398C95.8069 13.8398 97.4076 14.5071 98.6083 15.8418C99.7782 17.1601 100.386 18.8854 100.433 21.0176C100.386 23.1334 99.7782 24.8587 98.6083 26.1933C97.4076 27.528 95.8069 28.1953 93.8057 28.1953C91.8044 28.1953 90.2037 27.528 89.003 26.1933C87.8024 24.8587 87.1867 23.1334 87.156 21.0176C87.1867 18.9017 87.8024 17.1764 89.003 15.8418ZM93.8057 26.4863C95.3449 26.4863 96.5536 25.9655 97.4308 24.9238C98.2928 23.9147 98.7236 22.6126 98.7236 21.0176C98.7236 19.4225 98.2928 18.1204 97.4308 17.1113C96.538 16.0534 95.3298 15.5325 93.8057 15.5488C92.2664 15.5488 91.0502 16.0696 90.1574 17.1113C89.2953 18.1204 88.8721 19.4225 88.8877 21.0176C88.8877 22.6126 89.3109 23.9147 90.1574 24.9238C91.0502 25.9655 92.2664 26.4863 93.8057 26.4863ZM104.727 23.5566C104.712 23.9472 104.504 24.1426 104.104 24.1426C103.704 24.1426 103.496 23.9472 103.48 23.5566L103.134 16.9648V14.9629C103.134 14.6699 103.226 14.4258 103.411 14.2304C103.611 14.0351 103.842 13.9375 104.104 13.9375C104.381 13.9375 104.612 14.0433 104.796 14.2549C104.996 14.4502 105.097 14.6862 105.097 14.9629V16.9648L104.727 23.5566ZM102.996 26.8769C102.996 26.5514 103.103 26.2747 103.319 26.0469C103.55 25.819 103.819 25.7051 104.127 25.7051C104.435 25.7051 104.697 25.819 104.912 26.0469C105.143 26.2747 105.258 26.5514 105.258 26.8769C105.258 27.2024 105.143 27.4873 104.912 27.7314C104.697 27.9593 104.435 28.0732 104.127 28.0732C103.819 28.0732 103.55 27.9593 103.319 27.7314C103.103 27.4873 102.996 27.2024 102.996 26.8769Z" fill="#272926"/>
<mask id="mask0_18_25" style="mask-type:luminance" maskUnits="userSpaceOnUse" x="46" y="12" width="60" height="17">
<path d="M105.984 12.5H46.4009V29H105.984V12.5Z" fill="white"/>
<path d="M55.1988 26.1933C55.4452 26.1933 55.6452 26.2829 55.7994 26.4619C55.9687 26.6246 56.0533 26.8362 56.0533 27.0967C56.0533 27.3408 55.9687 27.5524 55.7994 27.7314C55.6452 27.9105 55.4452 28 55.1988 28H48.4796C48.1411 28 47.8564 27.8779 47.6255 27.6338C47.3947 27.3896 47.2792 27.0885 47.2792 26.7304V14.8652C47.2792 14.6211 47.3639 14.4095 47.5332 14.2304C47.7025 14.0351 47.9027 13.9375 48.1335 13.9375C48.3643 13.9375 48.5648 14.027 48.734 14.206C48.9185 14.3851 49.0112 14.6048 49.0112 14.8652V26.1933H55.1988ZM57.9699 14.206C57.9699 13.9456 58.0546 13.734 58.2239 13.5713C58.3932 13.3922 58.6008 13.3027 58.8471 13.3027C59.0935 13.3027 59.2935 13.3922 59.4477 13.5713C59.617 13.734 59.7016 13.9456 59.7016 14.206V27.1943C59.7016 27.4385 59.617 27.65 59.4477 27.8291C59.2935 28.0081 59.0935 28.0976 58.8471 28.0976C58.6008 28.0976 58.3932 28.0081 58.2239 27.8291C58.0546 27.65 57.9699 27.4385 57.9699 27.1943V14.206ZM63.9732 23.5566C64.081 24.4518 64.4045 25.1679 64.9431 25.7051C65.4973 26.2259 66.2515 26.4863 67.2058 26.4863C68.1757 26.4863 68.999 26.3235 69.6766 25.998C69.8918 25.8841 70.0843 25.8271 70.2536 25.8271C70.4229 25.8108 70.577 25.876 70.7156 26.0224C70.8693 26.1689 70.9463 26.3317 70.9463 26.5107C70.9463 26.8688 70.8078 27.1211 70.5307 27.2676C70.2692 27.414 70.0304 27.5442 69.8152 27.6582C69.5996 27.7721 69.3688 27.8698 69.1224 27.9511C68.5526 28.1139 67.891 28.1953 67.1368 28.1953C65.5819 28.1953 64.3737 27.7396 63.5117 26.8281C62.6647 25.9004 62.2415 24.5901 62.2415 22.8974C62.2415 21.4326 62.6033 20.2119 63.3268 19.2353C64.1425 18.1448 65.2892 17.5996 66.767 17.5996C68.1833 17.5996 69.2993 18.1041 70.115 19.1133C70.8849 20.0573 71.2698 21.2373 71.2698 22.6533C71.2698 22.8974 71.1851 23.109 71.0158 23.2881C70.8617 23.4671 70.6617 23.5566 70.4153 23.5566H63.9732ZM66.767 19.1377C65.6434 19.1377 64.8277 19.6666 64.3198 20.7246C64.1349 21.0989 64.0195 21.5465 63.9732 22.0674H69.5613C69.5149 21.1233 69.1839 20.3746 68.5682 19.8213C68.0755 19.3655 67.4754 19.1377 66.767 19.1377ZM79.9746 26.4863C81.1601 26.4863 82.2681 26.1933 83.2995 25.6074V21.9941H80.1595C79.9439 21.9941 79.759 21.9127 79.6053 21.75C79.4668 21.5872 79.3972 21.3919 79.3972 21.164C79.3972 20.9362 79.4743 20.7409 79.6285 20.5781C79.7822 20.4153 79.959 20.334 80.1595 20.334H83.9C84.1464 20.334 84.354 20.4316 84.5233 20.6269C84.7082 20.806 84.8004 21.0338 84.8004 21.3105V25.8271C84.8004 26.1201 84.7314 26.3805 84.5928 26.6084C84.4694 26.82 84.3001 26.9746 84.0845 27.0722C82.6686 27.8209 81.2292 28.1953 79.767 28.1953C77.7809 28.1953 76.1802 27.528 74.964 26.1933C73.7482 24.8587 73.1325 23.1416 73.1169 21.042C73.1169 18.9261 73.7557 17.1764 75.0335 15.7929C76.2493 14.4909 77.8041 13.8398 79.6975 13.8398C80.7752 13.8398 81.6832 13.9782 82.4223 14.2549C83.1609 14.5316 83.823 14.8733 84.4079 15.2802C84.6543 15.4267 84.7772 15.6383 84.7772 15.915C84.7772 16.1917 84.7082 16.4114 84.5696 16.5742C84.4462 16.737 84.285 16.8183 84.0845 16.8183C83.8844 16.8183 83.7227 16.7858 83.5998 16.7207C82.3835 15.972 81.1445 15.5976 79.8824 15.5976C78.4198 15.5976 77.2191 16.0696 76.2805 17.0136C75.3106 18.0065 74.8334 19.3493 74.8486 21.042C74.8486 22.6207 75.295 23.9147 76.1878 24.9238C77.1269 25.9655 78.3891 26.4863 79.9746 26.4863ZM89.0029 15.8418C90.2036 14.5071 91.8043 13.8398 93.8055 13.8398C95.8068 13.8398 97.4075 14.5071 98.6081 15.8418C99.778 17.1601 100.386 18.8854 100.433 21.0176C100.386 23.1334 99.778 24.8587 98.6081 26.1933C97.4075 27.528 95.8068 28.1953 93.8055 28.1953C91.8043 28.1953 90.2036 27.528 89.0029 26.1933C87.8023 24.8587 87.1866 23.1334 87.1558 21.0176C87.1866 18.9017 87.8023 17.1764 89.0029 15.8418ZM93.8055 26.4863C95.3448 26.4863 96.5535 25.9655 97.4307 24.9238C98.2927 23.9147 98.7235 22.6126 98.7235 21.0176C98.7235 19.4225 98.2927 18.1204 97.4307 17.1113C96.5379 16.0534 95.3296 15.5325 93.8055 15.5488C92.2663 15.5488 91.05 16.0696 90.1572 17.1113C89.2952 18.1204 88.8719 19.4225 88.8875 21.0176C88.8875 22.6126 89.3108 23.9147 90.1572 24.9238C91.05 25.9655 92.2663 26.4863 93.8055 26.4863ZM104.727 23.5566C104.712 23.9472 104.504 24.1426 104.104 24.1426C103.703 24.1426 103.496 23.9472 103.48 23.5566L103.134 16.9648V14.9629C103.134 14.6699 103.226 14.4258 103.411 14.2304C103.611 14.0351 103.842 13.9375 104.104 13.9375C104.381 13.9375 104.612 14.0433 104.796 14.2549C104.996 14.4502 105.097 14.6862 105.097 14.9629V16.9648L104.727 23.5566ZM102.996 26.8769C102.996 26.5514 103.103 26.2747 103.319 26.0469C103.55 25.819 103.819 25.7051 104.127 25.7051C104.435 25.7051 104.697 25.819 104.912 26.0469C105.143 26.2747 105.258 26.5514 105.258 26.8769C105.258 27.2024 105.143 27.4873 104.912 27.7314C104.697 27.9593 104.435 28.0732 104.127 28.0732C103.819 28.0732 103.55 27.9593 103.319 27.7314C103.103 27.4873 102.996 27.2024 102.996 26.8769Z" fill="black"/>
</mask>
<g mask="url(#mask0_18_25)">
<path d="M55.7995 26.4619L55.4496 26.7982L55.4647 26.8158L55.4813 26.8319L55.7995 26.4619ZM55.7995 27.7314L55.4652 27.3779L55.4571 27.3863L55.4496 27.3951L55.7995 27.7314ZM47.5333 14.2304L47.8678 14.584L47.8749 14.5763L47.882 14.5683L47.5333 14.2304ZM48.7342 14.206L48.3994 14.5596L48.4069 14.5673L48.4145 14.5746L48.7342 14.206ZM49.0113 26.1933H48.5384V26.6933H49.0113V26.1933ZM55.1989 26.6933C55.3238 26.6933 55.3928 26.732 55.4496 26.7982L56.1494 26.1256C55.8983 25.8337 55.5673 25.6933 55.1989 25.6933V26.6933ZM55.4813 26.8319C55.5442 26.892 55.5806 26.965 55.5806 27.0967H56.5263C56.5263 26.7074 56.3934 26.3573 56.1178 26.0919L55.4813 26.8319ZM55.5806 27.0967C55.5806 27.2028 55.5494 27.2887 55.4652 27.3779L56.1338 28.085C56.3882 27.8161 56.5263 27.4788 56.5263 27.0967H55.5806ZM55.4496 27.3951C55.3928 27.4613 55.3238 27.5 55.1989 27.5V28.5C55.5673 28.5 55.8983 28.3596 56.1494 28.0678L55.4496 27.3951ZM55.1989 27.5H48.4797V28.5H55.1989V27.5ZM48.4797 27.5C48.2617 27.5 48.0986 27.4268 47.96 27.2802L47.2912 27.9873C47.6145 28.329 48.021 28.5 48.4797 28.5V27.5ZM47.96 27.2802C47.8215 27.1337 47.7522 26.9614 47.7522 26.7304H46.8064C46.8064 27.2156 46.9681 27.6456 47.2912 27.9873L47.96 27.2802ZM47.7522 26.7304V14.8652H46.8064V26.7304H47.7522ZM47.7522 14.8652C47.7522 14.7591 47.7833 14.6731 47.8678 14.584L47.1989 13.8769C46.9446 14.1458 46.8064 14.4831 46.8064 14.8652H47.7522ZM47.882 14.5683C47.97 14.4665 48.0475 14.4375 48.1336 14.4375V13.4375C47.758 13.4375 47.435 13.6038 47.1847 13.8926L47.882 14.5683ZM48.1336 14.4375C48.2338 14.4375 48.3152 14.4704 48.3994 14.5596L49.0685 13.8525C48.8141 13.5836 48.4949 13.4375 48.1336 13.4375V14.4375ZM48.4145 14.5746C48.5034 14.6608 48.5384 14.7477 48.5384 14.8652H49.4841C49.4841 14.4619 49.3338 14.1093 49.0534 13.8375L48.4145 14.5746ZM48.5384 14.8652V26.1933H49.4841V14.8652H48.5384ZM49.0113 26.6933H55.1989V25.6933H49.0113V26.6933ZM58.224 13.5713L58.5422 13.9412L58.5503 13.9332L58.5583 13.9248L58.224 13.5713ZM59.4478 13.5713L59.0979 13.9076L59.113 13.9252L59.1296 13.9412L59.4478 13.5713ZM59.4478 27.8291L59.1135 27.4755L59.1054 27.4839L59.0979 27.4927L59.4478 27.8291ZM58.4429 14.206C58.4429 14.0744 58.4793 14.0014 58.5422 13.9412L57.9057 13.2013C57.63 13.4666 57.4972 13.8168 57.4972 14.206H58.4429ZM58.5583 13.9248C58.6363 13.8425 58.7224 13.8027 58.8472 13.8027V12.8027C58.4798 12.8027 58.1502 12.942 57.8897 13.2177L58.5583 13.9248ZM58.8472 13.8027C58.9721 13.8027 59.0411 13.8414 59.0979 13.9076L59.7977 13.2349C59.5466 12.9431 59.2156 12.8027 58.8472 12.8027V13.8027ZM59.1296 13.9412C59.1924 14.0014 59.2289 14.0744 59.2289 14.206H60.1746C60.1746 13.8168 60.0417 13.4666 59.7661 13.2013L59.1296 13.9412ZM59.2289 14.206V27.1943H60.1746V14.206H59.2289ZM59.2289 27.1943C59.2289 27.3005 59.1976 27.3864 59.1135 27.4755L59.7821 28.1826C60.0365 27.9137 60.1746 27.5765 60.1746 27.1943H59.2289ZM59.0979 27.4927C59.0411 27.5589 58.9721 27.5976 58.8472 27.5976V28.5976C59.2156 28.5976 59.5466 28.4573 59.7977 28.1654L59.0979 27.4927ZM58.8472 27.5976C58.7224 27.5976 58.6363 27.5578 58.5583 27.4755L57.8897 28.1826C58.1502 28.4584 58.4798 28.5976 58.8472 28.5976V27.5976ZM58.5583 27.4755C58.4741 27.3864 58.4429 27.3005 58.4429 27.1943H57.4972C57.4972 27.5765 57.6352 27.9137 57.8897 28.1826L58.5583 27.4755ZM58.4429 27.1943V14.206H57.4972V27.1943H58.4429ZM63.9733 23.5566V23.0566H63.4366L63.5042 23.6197L63.9733 23.5566ZM64.9432 25.7051L64.6188 26.0688L64.624 26.0739L64.6292 26.0788L64.9432 25.7051ZM69.6767 25.998L69.8725 26.4532L69.8801 26.4494L69.8881 26.4452L69.6767 25.998ZM70.2537 25.8271V26.3271H70.2754L70.2967 26.3251L70.2537 25.8271ZM70.7157 26.0224L70.3813 26.376L70.3899 26.3853L70.3993 26.3941L70.7157 26.0224ZM70.5308 27.2676L70.3194 26.8203L70.3147 26.8229L70.3095 26.8257L70.5308 27.2676ZM69.1225 27.9511L69.246 28.4338L69.2549 28.4313L69.2634 28.4284L69.1225 27.9511ZM63.5118 26.8281L63.1713 27.1753L63.1741 27.1785L63.177 27.1817L63.5118 26.8281ZM63.3269 19.2353L62.9561 18.9251L62.9547 18.927L63.3269 19.2353ZM70.1151 19.1133L69.7557 19.4381L69.7571 19.4397L70.1151 19.1133ZM71.016 23.2881L70.6816 22.9345L70.6736 22.9429L70.666 22.9517L71.016 23.2881ZM64.3199 20.7246L64.7389 20.9559L64.7413 20.9509L64.3199 20.7246ZM63.9733 22.0674L63.5028 22.0207L63.4541 22.5674H63.9733V22.0674ZM69.5614 22.0674V22.5674H70.0593L70.0333 22.0415L69.5614 22.0674ZM68.5683 19.8213L68.2567 20.1976L68.2595 20.1999L68.2619 20.2022L68.5683 19.8213ZM63.5042 23.6197C63.6238 24.6114 63.9884 25.4404 64.6188 26.0688L65.2676 25.3413C64.8202 24.8955 64.5384 24.2922 64.4424 23.4935L63.5042 23.6197ZM64.6292 26.0788C65.2922 26.7021 66.1698 26.9863 67.2059 26.9863V25.9863C66.333 25.9863 65.7022 25.7496 65.2572 25.3313L64.6292 26.0788ZM67.2059 26.9863C68.2236 26.9863 69.1178 26.8158 69.8725 26.4532L69.481 25.5428C68.8809 25.8313 68.1281 25.9863 67.2059 25.9863V26.9863ZM69.8881 26.4452C70.064 26.3523 70.1823 26.3271 70.2537 26.3271V25.3271C69.987 25.3271 69.7203 25.4159 69.4649 25.5508L69.8881 26.4452ZM70.2967 26.3251C70.309 26.3239 70.3147 26.3255 70.3208 26.328C70.3284 26.3312 70.3492 26.3421 70.3813 26.376L71.05 25.6689C70.8292 25.4353 70.5421 25.2973 70.2111 25.3292L70.2967 26.3251ZM70.3993 26.3941C70.4778 26.4686 70.4736 26.5044 70.4736 26.5107H71.4193C71.4193 26.159 71.2614 25.8692 71.032 25.6508L70.3993 26.3941ZM70.4736 26.5107C70.4736 26.6215 70.4528 26.6831 70.4338 26.7174C70.4163 26.7491 70.3861 26.7852 70.3194 26.8203L70.7426 27.7148C70.9531 27.6034 71.1304 27.4401 71.2514 27.2195C71.3711 27.0016 71.4193 26.758 71.4193 26.5107H70.4736ZM70.3095 26.8257C70.0503 26.9707 69.8153 27.0991 69.6034 27.211L70.0267 28.1054C70.2461 27.9894 70.4877 27.8574 70.7521 27.7094L70.3095 26.8257ZM69.6034 27.211C69.4124 27.3121 69.2053 27.4 68.9816 27.4739L69.2634 28.4284C69.5325 28.3396 69.7869 28.2321 70.0267 28.1054L69.6034 27.211ZM68.9991 27.4685C68.4789 27.6171 67.8604 27.6953 67.1369 27.6953V28.6953C67.9219 28.6953 68.6265 28.6108 69.246 28.4338L68.9991 27.4685ZM67.1369 27.6953C65.671 27.6953 64.5966 27.2682 63.8461 26.4745L63.177 27.1817C64.1506 28.2109 65.4927 28.6953 67.1369 28.6953V27.6953ZM63.8518 26.4809C63.1145 25.6727 62.7145 24.5025 62.7145 22.8974H61.7687C61.7687 24.6778 62.2156 26.128 63.1713 27.1753L63.8518 26.4809ZM62.7145 22.8974C62.7145 21.5234 63.0521 20.417 63.699 19.5437L62.9547 18.927C62.1546 20.0068 61.7687 21.3418 61.7687 22.8974H62.7145ZM63.6976 19.5455C64.4121 18.5908 65.4137 18.0996 66.7671 18.0996V17.0996C65.1654 17.0996 63.8735 17.6989 62.9561 18.9251L63.6976 19.5455ZM66.7671 18.0996C68.0652 18.0996 69.0421 18.5551 69.7557 19.4381L70.475 18.7884C69.5571 17.6531 68.3021 17.0996 66.7671 17.0996V18.0996ZM69.7571 19.4397C70.4428 20.2806 70.797 21.3398 70.797 22.6533H71.7428C71.7428 21.1348 71.3271 19.8339 70.4736 18.7868L69.7571 19.4397ZM70.797 22.6533C70.797 22.7594 70.7658 22.8454 70.6816 22.9345L71.3503 23.6416C71.6047 23.3727 71.7428 23.0354 71.7428 22.6533H70.797ZM70.666 22.9517C70.6088 23.0179 70.5398 23.0566 70.4154 23.0566V24.0566C70.7838 24.0566 71.1148 23.9163 71.3659 23.6244L70.666 22.9517ZM70.4154 23.0566H63.9733V24.0566H70.4154V23.0566ZM66.7671 18.6377C66.1334 18.6377 65.5598 18.7876 65.0652 19.1082C64.571 19.4288 64.1847 19.9013 63.8981 20.4982L64.7413 20.9509C64.9626 20.4899 65.2383 20.169 65.5598 19.9606C65.8814 19.7522 66.2772 19.6377 66.7671 19.6377V18.6377ZM63.9005 20.4933C63.6815 20.937 63.5529 21.4503 63.5028 22.0207L64.4443 22.114C64.4859 21.6428 64.5885 21.2609 64.7389 20.9559L63.9005 20.4933ZM63.9733 22.5674H69.5614V21.5674H63.9733V22.5674ZM70.0333 22.0415C69.9813 20.9762 69.6006 20.0928 68.8747 19.4403L68.2619 20.2022C68.7674 20.6565 69.0488 21.2705 69.089 22.0932L70.0333 22.0415ZM68.8795 19.445C68.2936 18.9027 67.58 18.6377 66.7671 18.6377V19.6377C67.371 19.6377 67.858 19.8284 68.2567 20.1976L68.8795 19.445ZM83.2996 25.6074L83.5237 26.0478L83.7725 25.9063V25.6074H83.2996ZM83.2996 21.9941H83.7725V21.4941H83.2996V21.9941ZM79.6054 21.75L79.2541 22.0845L79.2621 22.0942L79.2711 22.1035L79.6054 21.75ZM84.5234 20.6269L84.1749 20.9648L84.1886 20.9808L84.2037 20.9955L84.5234 20.6269ZM84.5929 26.6084L84.1947 26.338L84.1924 26.3421L84.19 26.3463L84.5929 26.6084ZM84.0846 27.0722L83.8987 26.6127L83.886 26.6185L83.8732 26.625L84.0846 27.0722ZM73.117 21.042H72.6441V21.0458L73.117 21.042ZM75.0336 15.7929L74.6969 15.4416L74.695 15.4436L75.0336 15.7929ZM84.408 15.2802L84.1479 15.698L84.1616 15.7075L84.1763 15.716L84.408 15.2802ZM84.5697 16.5742L84.2184 16.2397L84.2089 16.2505L84.2004 16.2618L84.5697 16.5742ZM83.5999 16.7207L83.362 17.1528L83.3748 17.1608L83.3885 17.1679L83.5999 16.7207ZM76.2806 17.0136L75.9543 16.6513L75.9514 16.6544L76.2806 17.0136ZM74.8487 21.042H75.3216V21.0372L74.8487 21.042ZM76.1879 24.9238L75.8427 25.2654L75.8455 25.2688L76.1879 24.9238ZM79.9747 26.9863C81.2373 26.9863 82.4224 26.6734 83.5237 26.0478L83.0759 25.167C82.1141 25.7133 81.0827 25.9863 79.9747 25.9863V26.9863ZM83.7725 25.6074V21.9941H82.8267V25.6074H83.7725ZM83.2996 21.4941H80.1596V22.4941H83.2996V21.4941ZM80.1596 21.4941C80.0707 21.4941 80.0059 21.4665 79.9397 21.3964L79.2711 22.1035C79.5127 22.359 79.8173 22.4941 80.1596 22.4941V21.4941ZM79.9568 21.4155C79.9 21.3486 79.8702 21.2739 79.8702 21.164H78.9245C78.9245 21.5099 79.0337 21.8259 79.2541 22.0845L79.9568 21.4155ZM79.8702 21.164C79.8702 21.0703 79.8967 21.0017 79.9629 20.9317L79.2943 20.2245C79.0526 20.48 78.9245 20.8021 78.9245 21.164H79.8702ZM79.9629 20.9317C80.0367 20.8536 80.0963 20.834 80.1596 20.834V19.834C79.8225 19.834 79.5279 19.9771 79.2943 20.2245L79.9629 20.9317ZM80.1596 20.834H83.9001V19.834H80.1596V20.834ZM83.9001 20.834C84.0113 20.834 84.0936 20.8707 84.1749 20.9648L84.8719 20.2891C84.6151 19.9925 84.2813 19.834 83.9001 19.834V20.834ZM84.2037 20.9955C84.286 21.0752 84.3276 21.167 84.3276 21.3105H85.2734C85.2734 20.9007 85.1301 20.5367 84.8431 20.2584L84.2037 20.9955ZM84.3276 21.3105V25.8271H85.2734V21.3105H84.3276ZM84.3276 25.8271C84.3276 26.0324 84.2803 26.1974 84.1947 26.338L84.9906 26.8788C85.1821 26.5636 85.2734 26.2078 85.2734 25.8271H84.3276ZM84.19 26.3463C84.1181 26.4702 84.024 26.5558 83.8987 26.6127L84.2709 27.5318C84.5764 27.3934 84.8213 27.1697 84.9953 26.8704L84.19 26.3463ZM83.8732 26.625C82.5174 27.3419 81.1499 27.6953 79.7671 27.6953V28.6953C81.3087 28.6953 82.8201 28.2999 84.2964 27.5195L83.8732 26.625ZM79.7671 27.6953C77.8907 27.6953 76.4196 27.0699 75.305 25.8464L74.6236 26.5402C75.941 27.9861 77.6713 28.6953 79.7671 28.6953V27.6953ZM75.305 25.8464C74.1843 24.6165 73.6045 23.0281 73.5899 21.0381L72.6441 21.0458C72.6602 23.2551 73.3123 25.1009 74.6236 26.5402L75.305 25.8464ZM73.5899 21.042C73.5899 19.0431 74.189 17.4231 75.3717 16.1423L74.695 15.4436C73.3227 16.9297 72.6441 18.809 72.6441 21.042H73.5899ZM75.3698 16.1443C76.4882 14.9467 77.9177 14.3398 79.6976 14.3398V13.3398C77.6912 13.3398 76.0106 14.035 74.6969 15.4416L75.3698 16.1443ZM79.6976 14.3398C80.7403 14.3398 81.5915 14.4741 82.2644 14.7262L82.5803 13.7835C81.7755 13.4822 80.8103 13.3398 79.6976 13.3398V14.3398ZM82.2644 14.7262C82.9714 14.991 83.5984 15.3157 84.1479 15.698L84.6681 14.8625C84.0477 14.431 83.3506 14.0721 82.5803 13.7835L82.2644 14.7262ZM84.1763 15.716C84.2884 15.7826 84.3045 15.836 84.3045 15.915H85.2502C85.2502 15.4407 85.0204 15.0708 84.6397 14.8445L84.1763 15.716ZM84.3045 15.915C84.3045 16.1019 84.2595 16.1911 84.2184 16.2397L84.9211 16.9087C85.1571 16.6318 85.2502 16.2815 85.2502 15.915H84.3045ZM84.2004 16.2618C84.1687 16.3039 84.1437 16.3183 84.0846 16.3183V17.3183C84.426 17.3183 84.7244 17.17 84.9391 16.8865L84.2004 16.2618ZM84.0846 16.3183C83.9271 16.3183 83.8458 16.2917 83.8112 16.2735L83.3885 17.1679C83.6003 17.2798 83.842 17.3183 84.0846 17.3183V16.3183ZM83.8377 16.2886C82.5581 15.5006 81.2373 15.0976 79.8825 15.0976V16.0976C81.052 16.0976 82.2096 16.4433 83.362 17.1528L83.8377 16.2886ZM79.8825 15.0976C78.3154 15.0976 76.9927 15.6073 75.9543 16.6513L76.6064 17.376C77.4458 16.5319 78.5244 16.0976 79.8825 16.0976V15.0976ZM75.9514 16.6544C74.8714 17.7603 74.3597 19.2446 74.3758 21.0468L75.3216 21.0372C75.3074 19.4539 75.75 18.2527 76.6092 17.3729L75.9514 16.6544ZM74.3758 21.042C74.3758 22.7281 74.8562 24.1504 75.8427 25.2654L76.5336 24.5822C75.7344 23.679 75.3216 22.5133 75.3216 21.042H74.3758ZM75.8455 25.2688C76.8887 26.4259 78.2832 26.9863 79.9747 26.9863V25.9863C78.4956 25.9863 77.3654 25.505 76.5303 24.5788L75.8455 25.2688ZM98.6082 15.8418L98.9534 15.4996L98.9511 15.4972L98.6082 15.8418ZM100.433 21.0176L100.905 21.0291L100.906 21.0176V21.0061L100.433 21.0176ZM98.6082 26.1933L98.9511 26.538L98.9553 26.5332L98.6082 26.1933ZM87.1559 21.0176L86.6831 21.0099L86.6826 21.0176L86.6831 21.0252L87.1559 21.0176ZM97.4308 24.9238L97.0799 24.5887L97.0775 24.5913L97.4308 24.9238ZM97.4308 17.1113L97.078 17.4442L97.0799 17.4464L97.4308 17.1113ZM93.8056 15.5488V16.0488L93.8104 16.0488L93.8056 15.5488ZM90.1573 17.1113L89.8069 16.7755L89.8065 16.7762L90.1573 17.1113ZM88.8876 21.0176H89.3605V21.0125L88.8876 21.0176ZM90.1573 24.9238L89.8036 25.2556L89.8069 25.2596L90.1573 24.9238ZM89.3454 16.1864C90.4434 14.966 91.9132 14.3398 93.8056 14.3398V13.3398C91.6961 13.3398 89.9639 14.0483 88.6602 15.4972L89.3454 16.1864ZM93.8056 14.3398C95.6986 14.3398 97.1678 14.966 98.2659 16.1864L98.9511 15.4972C97.6473 14.0483 95.9152 13.3398 93.8056 13.3398V14.3398ZM98.2635 16.1839C99.3398 17.3967 99.9158 18.9965 99.9597 21.029L100.906 21.0061C100.857 18.7742 100.217 16.9235 98.9534 15.4996L98.2635 16.1839ZM99.9597 21.006C99.9158 23.021 99.3403 24.6227 98.2616 25.8535L98.9553 26.5332C100.216 25.0947 100.857 23.2459 100.905 21.0291L99.9597 21.006ZM98.2659 25.8487C97.1678 27.0691 95.6986 27.6953 93.8056 27.6953V28.6953C95.9152 28.6953 97.6473 27.9869 98.9511 26.538L98.2659 25.8487ZM93.8056 27.6953C91.9132 27.6953 90.4434 27.0691 89.3454 25.8487L88.6602 26.5379C89.9639 27.9869 91.6961 28.6953 93.8056 28.6953V27.6953ZM89.3454 25.8487C88.2388 24.6187 87.6577 23.0202 87.6284 21.0099L86.6831 21.0252C86.7152 23.2467 87.3654 25.0987 88.6602 26.5379L89.3454 25.8487ZM87.6284 21.0252C87.6577 19.0149 88.2388 17.4164 89.3454 16.1864L88.6602 15.4972C87.3654 16.9364 86.7152 18.7884 86.6831 21.0099L87.6284 21.0252ZM93.8056 26.9863C95.4551 26.9863 96.8013 26.4226 97.784 25.2563L97.0775 24.5913C96.3053 25.5083 95.2347 25.9863 93.8056 25.9863V26.9863ZM97.7816 25.2589C98.7354 24.1424 99.1965 22.7137 99.1965 21.0176H98.2507C98.2507 22.5115 97.8502 23.687 97.0799 24.5887L97.7816 25.2589ZM99.1965 21.0176C99.1965 19.3214 98.7354 17.8928 97.7816 16.7762L97.0799 17.4464C97.8502 18.3481 98.2507 19.5236 98.2507 21.0176H99.1965ZM97.7835 16.7784C96.7872 15.5975 95.4404 15.0313 93.8009 15.0488L93.8104 16.0488C95.2186 16.0337 96.2887 16.5093 97.078 17.4442L97.7835 16.7784ZM93.8056 15.0488C92.1562 15.0488 90.8038 15.6124 89.8069 16.7755L90.5077 17.4471C91.2965 16.5268 92.3766 16.0488 93.8056 16.0488V15.0488ZM89.8065 16.7762C88.8512 17.8943 88.3982 19.3252 88.4148 21.0227L89.3605 21.0125C89.3459 19.5198 89.7393 18.3465 90.5082 17.4464L89.8065 16.7762ZM88.4148 21.0176C88.4148 22.7113 88.8668 24.1388 89.8036 25.2556L90.5111 24.592C89.7549 23.6906 89.3605 22.5139 89.3605 21.0176H88.4148ZM89.8069 25.2596C90.8038 26.4227 92.1562 26.9863 93.8056 26.9863V25.9863C92.3766 25.9863 91.2965 25.5083 90.5077 24.588L89.8069 25.2596ZM104.727 23.5566L104.255 23.527L104.255 23.5314V23.5358L104.727 23.5566ZM103.48 23.5566L103.953 23.5358V23.5289L103.48 23.5566ZM103.134 16.9648H102.661V16.9787L102.662 16.9926L103.134 16.9648ZM103.411 14.2304L103.09 13.863L103.084 13.8698L103.077 13.8769L103.411 14.2304ZM104.796 14.2549L104.449 14.594L104.462 14.6087L104.476 14.6223L104.796 14.2549ZM105.097 16.9648L105.569 16.9944L105.57 16.9796V16.9648H105.097ZM103.319 26.0469L102.996 25.6813L102.99 25.6872L102.984 25.6933L103.319 26.0469ZM104.912 26.0469L104.577 26.4004L104.584 26.4065L104.589 26.4124L104.912 26.0469ZM103.319 27.7314L102.973 28.0726L102.984 28.0852L102.996 28.0969L103.319 27.7314ZM104.255 23.5358C104.253 23.5895 104.245 23.6167 104.241 23.6262C104.238 23.6332 104.239 23.6286 104.245 23.6224C104.26 23.6092 104.238 23.6426 104.104 23.6426V24.6426C104.369 24.6426 104.652 24.5783 104.874 24.3698C105.102 24.1552 105.188 23.8617 105.2 23.5774L104.255 23.5358ZM104.104 23.6426C103.969 23.6426 103.948 23.6092 103.962 23.6224C103.968 23.6286 103.969 23.6332 103.966 23.6262C103.963 23.6167 103.955 23.5895 103.953 23.5358L103.008 23.5774C103.019 23.8617 103.105 24.1552 103.334 24.3698C103.556 24.5783 103.838 24.6426 104.104 24.6426V23.6426ZM103.953 23.5289L103.606 16.9371L102.662 16.9926L103.008 23.5844L103.953 23.5289ZM103.607 16.9648V14.9629H102.661V16.9648H103.607ZM103.607 14.9629C103.607 14.7936 103.655 14.6794 103.746 14.584L103.077 13.8769C102.798 14.1721 102.661 14.5462 102.661 14.9629H103.607ZM103.732 14.5978C103.849 14.484 103.966 14.4375 104.104 14.4375V13.4375C103.718 13.4375 103.374 13.5863 103.09 13.863L103.732 14.5978ZM104.104 14.4375C104.252 14.4375 104.356 14.487 104.449 14.594L105.144 13.9157C104.868 13.5996 104.51 13.4375 104.104 13.4375V14.4375ZM104.476 14.6223C104.584 14.7273 104.624 14.832 104.624 14.9629H105.57C105.57 14.5403 105.41 14.1731 105.117 13.8875L104.476 14.6223ZM104.624 14.9629V16.9648H105.57V14.9629H104.624ZM104.625 16.9352L104.255 23.527L105.199 23.5862L105.569 16.9944L104.625 16.9352ZM103.469 26.8769C103.469 26.6825 103.527 26.5334 103.653 26.4004L102.984 25.6933C102.679 26.016 102.523 26.4203 102.523 26.8769H103.469ZM103.642 26.4124C103.787 26.2684 103.942 26.2051 104.127 26.2051V25.2051C103.696 25.2051 103.312 25.3695 102.996 25.6813L103.642 26.4124ZM104.127 26.2051C104.311 26.2051 104.452 26.2674 104.577 26.4004L105.247 25.6933C104.941 25.3706 104.559 25.2051 104.127 25.2051V26.2051ZM104.589 26.4124C104.727 26.5485 104.786 26.694 104.786 26.8769H105.731C105.731 26.4088 105.559 26.001 105.235 25.6813L104.589 26.4124ZM104.786 26.8769C104.786 27.0612 104.726 27.2212 104.577 27.3779L105.247 28.085C105.56 27.7534 105.731 27.3437 105.731 26.8769H104.786ZM104.577 27.3779C104.452 27.5109 104.311 27.5732 104.127 27.5732V28.5732C104.559 28.5732 104.941 28.4077 105.247 28.085L104.577 27.3779ZM104.127 27.5732C103.942 27.5732 103.787 27.5098 103.642 27.3659L102.996 28.0969C103.312 28.4087 103.696 28.5732 104.127 28.5732V27.5732ZM103.664 27.3903C103.528 27.236 103.469 27.0722 103.469 26.8769H102.523C102.523 27.3327 102.678 27.7385 102.973 28.0726L103.664 27.3903Z" fill="black"/>
</g>
<path d="M38.8354 28.1828L20.3924 39.4776L1.94934 28.1828L20.3924 16.9243L38.8354 28.1828Z" fill="#272926" stroke="#272926"/>
<path d="M20.8841 38.1088L5.54822 28.7451L20.8841 19.3866L36.22 28.7451L20.8841 38.1088Z" fill="black" stroke="#272926"/>
<path d="M5.17627 9.88089L20.6477 0.433075V18.9539L20.3219 19.1538L5.17627 9.88089Z" fill="#007200" stroke="#272926"/>
<path d="M21.4507 19.1541L21.1205 18.9533V0.433075L36.592 9.88089L21.4507 19.1541Z" fill="#007200" stroke="#272926"/>
<path d="M20.6477 37.9644L4.94043 28.3778V10.3142L20.6477 19.9318V37.9644Z" fill="#007200" stroke="#272926"/>
<path d="M36.8278 10.3142V28.3777L21.1205 37.9644V19.9318L36.8278 10.3142Z" fill="#007200" stroke="#272926"/>
<path d="M20.884 19.7877L21.2554 37.6863L34.8058 29.8964L20.884 38.3974V19.7877Z" fill="#007200"/>
<mask id="mask1_18_25" style="mask-type:luminance" maskUnits="userSpaceOnUse" x="20" y="19" width="15" height="20">
<path d="M20.884 19.7877L21.2554 37.6863L34.8058 29.8964L20.884 38.3974V19.7877Z" fill="white"/>
</mask>
<g mask="url(#mask1_18_25)">
<path d="M20.884 19.7877L21.3568 19.7767L20.4111 19.7877H20.884ZM21.2554 37.6863L20.7826 37.6973L20.7997 38.5174L21.4813 38.1256L21.2554 37.6863ZM34.8058 29.8964L35.0423 30.3294L34.5799 29.4572L34.8058 29.8964ZM20.884 38.3974H20.4111V39.2635L21.1205 38.8304L20.884 38.3974ZM20.4112 19.7986L20.7826 37.6973L21.7282 37.6753L21.3568 19.7767L20.4112 19.7986ZM21.4813 38.1256L35.0317 30.3357L34.5799 29.4572L21.0295 37.247L21.4813 38.1256ZM34.5693 29.4635L20.6475 37.9644L21.1205 38.8304L35.0423 30.3294L34.5693 29.4635ZM21.3569 38.3974V19.7877H20.4111V38.3974H21.3569Z" fill="#272926"/>
</g>
<path d="M36.5921 9.8809L20.8841 19.4989L5.17627 9.8809L20.8841 0.288696L36.5921 9.8809Z" fill="#007200" stroke="#272926"/>
<path d="M17.8352 17.6319L20.7722 19.3021L20.8842 19.3658L20.9962 19.3021L23.9332 17.6319L20.8842 19.4988L17.8352 17.6319Z" fill="#272926" stroke="#272926"/>
<path d="M5.73298 29.5L3.97953 27.6226C2.75152 26.3077 1.93607 24.6251 1.64392 22.8032L1.48965 21.8412C1.30483 20.6886 1.26789 19.5149 1.37982 18.3519L1.52548 16.8385C1.72246 14.7918 2.65755 12.9041 4.13651 11.5674L5.31897 10.4986" stroke="#272926" stroke-width="2" stroke-linejoin="round"/>
<path d="M20.8073 38.0442L19.1235 36.2649C17.8777 34.9485 17.0489 33.2558 16.7512 31.4204L16.6238 30.6353C16.4345 29.4679 16.3969 28.2787 16.5121 27.1006L16.6406 25.7869C16.8421 23.7273 17.7908 21.8306 19.2875 20.4954L20.4032 19.5" stroke="#272926" stroke-width="2" stroke-linejoin="round"/>
<path d="M36.7069 10.7499C36.9681 10.7499 37.1798 10.5261 37.1798 10.2499C37.1798 9.9738 36.9681 9.74994 36.7069 9.74994C36.4457 9.74994 36.234 9.9738 36.234 10.2499C36.234 10.5261 36.4457 10.7499 36.7069 10.7499Z" fill="#007200" stroke="#272926"/>
<path d="M37.455 9.93749L37.0391 9.49769L38.9977 7.37289L39.8619 8.46729L37.455 9.93749Z" fill="#007200" stroke="#272926"/>
</g>
<defs>
<clipPath id="clip0_18_25">
<rect width="119.167" height="40" fill="white" transform="translate(0.53125)"/>
</clipPath>
</defs>
</svg>
